<?xml version="1.0" standalone="no"?>
<!DOCTYPE svg PUBLIC "-//W3C//DTD SVG 20010904//EN"
 "http://www.w3.org/TR/2001/REC-SVG-20010904/DTD/svg10.dtd">
<svg version="1.0" xmlns="http://www.w3.org/2000/svg"
 width="1000.000000pt" height="1000.000000pt" viewBox="0 0 1000.000000 1000.000000"
 preserveAspectRatio="xMidYMid meet">
<metadata>
Created by potrace 1.11, written by Peter Selinger 2001-2013
</metadata>
<g transform="translate(0.000000,1000.000000) scale(0.100000,-0.100000)"
fill="#000000" stroke="none">
<path d="M0 9035 l0 -965 55 0 55 0 0 910 0 910 910 0 910 0 0 55 0 55 -965 0
-965 0 0 -965z"/>
<path d="M8070 9945 l0 -55 910 0 910 0 0 -910 0 -910 55 0 55 0 0 965 0 965
-965 0 -965 0 0 -55z"/>
<path d="M2354 7365 c-220 -41 -370 -244 -401 -545 -13 -123 -7 -417 11 -520
3 -14 7 -45 10 -70 48 -371 230 -970 425 -1393 17 -37 31 -70 31 -73 0 -7 220
-447 260 -519 18 -33 44 -80 57 -105 128 -232 339 -573 520 -840 89 -131 303
-433 313 -440 3 -3 17 -21 30 -40 27 -39 200 -262 209 -270 4 -3 30 -35 60
-72 29 -38 56 -68 59 -68 4 0 35 25 69 54 l62 54 -60 74 c-34 40 -69 82 -78
93 -173 209 -552 744 -746 1055 -43 69 -88 141 -100 160 -68 104 -234 407
-350 635 -138 273 -164 329 -240 515 -26 63 -51 124 -56 135 -39 88 -161 452
-185 550 -1 6 -14 57 -28 115 -128 512 -146 972 -45 1173 43 85 112 151 170
162 11 2 24 7 29 10 20 13 156 7 225 -9 263 -62 650 -289 1013 -593 11 -10 42
-36 69 -58 219 -182 601 -562 795 -789 18 -22 44 -51 57 -65 13 -14 35 -42 50
-61 14 -19 36 -47 49 -61 64 -73 312 -424 312 -442 0 -2 20 -39 45 -82 l45
-79 41 90 c102 223 174 362 300 581 66 115 254 395 321 478 263 326 467 532
693 700 44 33 82 63 83 68 2 4 8 7 13 7 5 0 32 16 59 35 64 45 234 134 324
170 242 95 454 102 616 20 97 -50 196 -183 234 -315 38 -131 45 -202 41 -395
-1 -104 -5 -201 -8 -215 -3 -14 -8 -43 -11 -65 -43 -302 -151 -679 -294 -1025
-52 -126 -236 -503 -301 -615 -63 -112 -72 -127 -92 -163 -266 -469 -769
-1180 -1211 -1709 l-119 -143 37 -32 c20 -18 49 -43 63 -56 l26 -23 45 49 c57
62 89 101 242 292 635 794 1186 1663 1448 2285 23 55 48 114 55 130 62 140
205 604 222 720 2 17 8 46 13 65 5 19 14 67 21 105 15 95 18 111 24 175 3 30
8 75 11 100 3 24 5 92 5 151 2 402 -118 687 -346 824 -100 60 -210 88 -345 89
-133 0 -214 -13 -358 -60 -382 -124 -785 -429 -1201 -909 -193 -222 -434 -586
-602 -908 l-66 -129 -59 84 c-32 45 -61 85 -64 88 -3 3 -17 21 -30 40 -94 138
-413 501 -626 714 -549 548 -1085 933 -1484 1066 -162 54 -286 68 -406 45z"/>
<path d="M0 965 l0 -965 965 0 965 0 0 55 0 55 -910 0 -910 0 0 910 0 910 -55
0 -55 0 0 -965z"/>
<path d="M9890 1020 l0 -910 -910 0 -910 0 0 -55 0 -55 965 0 965 0 0 965 0
965 -55 0 -55 0 0 -910z"/>
</g>
</svg>
